<svg width="170" height="67" fill="none" xmlns="http://www.w3.org/2000/svg"><path fill-rule="evenodd" clip-rule="evenodd" d="M160 0H0v67h160c5.523 0 10-4.477 10-10V10c0-5.523-4.477-10-10-10ZM36.501 29.004c.493.346.772.829.839 1.45h2.535c-.014-.82-.244-1.544-.689-2.174-.445-.635-1.058-1.13-1.84-1.485-.776-.36-1.68-.54-2.712-.54-1.019 0-1.93.18-2.735.54-.805.356-1.442.855-1.91 1.499-.464.644-.696 1.394-.696 2.252 0 1.041.345 1.877 1.037 2.507.696.625 1.643 1.09 2.84 1.399l1.655.426c.521.132.976.284 1.364.454.393.166.698.374.916.625.218.247.33.56.334.938a1.75 1.75 0 0 1-.377 1.094c-.246.307-.587.549-1.022.724-.431.17-.933.256-1.506.256-.55 0-1.046-.083-1.491-.249a2.48 2.48 0 0 1-1.073-.753c-.274-.336-.43-.757-.469-1.264H28.91c.038.966.289 1.785.753 2.457.469.673 1.117 1.184 1.946 1.535.833.35 1.816.525 2.947.525 1.165 0 2.157-.18 2.976-.54.824-.364 1.454-.868 1.89-1.512.435-.65.653-1.4.653-2.252 0-.63-.118-1.179-.355-1.647a3.656 3.656 0 0 0-.966-1.2 5.578 5.578 0 0 0-1.37-.825 9.39 9.39 0 0 0-1.585-.518l-1.363-.341a8.638 8.638 0 0 1-.888-.263 4.054 4.054 0 0 1-.803-.383 1.883 1.883 0 0 1-.575-.569 1.472 1.472 0 0 1-.206-.788 1.64 1.64 0 0 1 .32-.973c.208-.284.509-.509.902-.675.393-.165.864-.248 1.413-.248.781 0 1.416.173 1.903.518Zm17.726-2.55h-2.635v9.283c0 .606-.133 1.146-.398 1.62a2.831 2.831 0 0 1-1.136 1.115c-.488.265-1.066.397-1.733.397-.668 0-1.245-.132-1.733-.397a2.892 2.892 0 0 1-1.136-1.116c-.266-.473-.398-1.013-.398-1.619v-9.283h-2.635v9.503c0 1.042.244 1.958.731 2.749.488.79 1.175 1.409 2.06 1.854.886.44 1.922.66 3.11.66 1.185 0 2.22-.22 3.105-.66.885-.445 1.572-1.063 2.06-1.854.492-.79.738-1.707.738-2.749v-9.503Zm2.864 0V41h5.888c1.112 0 2.036-.173 2.77-.519.734-.345 1.283-.816 1.647-1.413.365-.601.547-1.278.547-2.031 0-.739-.151-1.368-.454-1.89a3.3 3.3 0 0 0-1.172-1.207 3.151 3.151 0 0 0-1.485-.475v-.143c.474-.113.902-.3 1.286-.56.383-.261.689-.6.916-1.016.227-.422.341-.928.341-1.52 0-.72-.175-1.364-.526-1.932-.345-.568-.868-1.016-1.57-1.342-.695-.332-1.569-.498-2.62-.498h-5.568Zm5.469 12.344h-2.834v-4.261h2.905c.544 0 1.013.102 1.406.305a2.174 2.174 0 0 1 1.229 1.989c0 .578-.213 1.051-.64 1.42-.421.365-1.11.547-2.066.547Zm-.228-6.157h-2.606v-4.013h2.663c.777 0 1.361.182 1.755.547.397.364.596.828.596 1.392 0 .426-.106.795-.32 1.108a2.07 2.07 0 0 1-.859.717 2.936 2.936 0 0 1-1.229.249Zm14.97-3.637c.493.346.772.829.838 1.45h2.536c-.014-.82-.244-1.544-.69-2.174-.444-.635-1.057-1.13-1.839-1.485-.776-.36-1.68-.54-2.713-.54-1.018 0-1.93.18-2.734.54-.805.356-1.442.855-1.91 1.499-.465.644-.697 1.394-.697 2.252 0 1.041.346 1.877 1.037 2.507.696.625 1.643 1.09 2.841 1.399l1.655.426c.52.132.975.284 1.364.454.393.166.698.374.916.625.218.247.329.56.334.938a1.75 1.75 0 0 1-.377 1.094c-.246.307-.587.549-1.022.724-.431.17-.933.256-1.506.256-.55 0-1.046-.083-1.492-.249a2.48 2.48 0 0 1-1.072-.753c-.275-.336-.43-.757-.469-1.264H69.71c.038.966.289 1.785.753 2.457.469.673 1.117 1.184 1.946 1.535.833.35 1.816.525 2.947.525 1.165 0 2.157-.18 2.976-.54.824-.364 1.454-.868 1.89-1.512.435-.65.653-1.4.653-2.252 0-.63-.119-1.179-.356-1.647a3.654 3.654 0 0 0-.965-1.2 5.58 5.58 0 0 0-1.371-.825 9.39 9.39 0 0 0-1.584-.518l-1.364-.341a8.636 8.636 0 0 1-.887-.263 4.054 4.054 0 0 1-.803-.383 1.883 1.883 0 0 1-.575-.569 1.472 1.472 0 0 1-.206-.788 1.64 1.64 0 0 1 .32-.973c.208-.284.508-.509.901-.675.393-.165.865-.248 1.414-.248.781 0 1.415.173 1.903.518Zm15.716 2.358h2.656c-.109-.81-.34-1.53-.696-2.159a5.33 5.33 0 0 0-1.342-1.605 5.788 5.788 0 0 0-1.861-1.001 7.236 7.236 0 0 0-2.259-.341c-1.269 0-2.405.296-3.409.887-1.004.592-1.797 1.447-2.379 2.564-.582 1.113-.874 2.453-.874 4.02 0 1.563.29 2.903.867 4.02.578 1.118 1.368 1.972 2.372 2.564 1.004.592 2.145.888 3.423.888.867 0 1.655-.128 2.365-.384.71-.26 1.33-.62 1.861-1.08.53-.463.959-.998 1.286-1.604a5.72 5.72 0 0 0 .646-1.946l-2.656-.015a3.164 3.164 0 0 1-1.215 1.975c-.303.227-.646.4-1.03.518-.378.114-.786.17-1.221.17-.786 0-1.485-.191-2.095-.575-.606-.388-1.085-.96-1.435-1.718-.346-.762-.519-1.7-.519-2.813 0-1.093.173-2.02.519-2.777.346-.762.824-1.34 1.435-1.733.61-.397 1.311-.596 2.102-.596.445 0 .86.061 1.243.184.388.119.734.296 1.037.533.303.237.556.526.76.866.203.337.343.723.419 1.158Zm10.524-4.907h-5.455V41h2.635v-5.327h2.681L106.262 41h2.94l-3.146-5.758c.095-.039.187-.08.277-.123.767-.374 1.347-.902 1.74-1.584.398-.686.596-1.496.596-2.428 0-.928-.196-1.74-.589-2.436-.388-.701-.964-1.246-1.726-1.634-.758-.388-1.695-.582-2.812-.582Zm-2.82 7.03h2.429c.653 0 1.188-.09 1.605-.27.417-.184.724-.451.923-.802.204-.355.306-.79.306-1.306 0-.517-.102-.957-.306-1.322a1.938 1.938 0 0 0-.93-.838c-.417-.194-.954-.29-1.612-.29h-2.415v4.829ZM111.095 41h2.635V26.454h-2.635V41Zm11.056-14.546h-5.568V41h5.888c1.113 0 2.036-.173 2.77-.519.734-.345 1.283-.816 1.647-1.413.365-.601.547-1.278.547-2.031 0-.739-.151-1.368-.454-1.89a3.303 3.303 0 0 0-1.172-1.207 3.152 3.152 0 0 0-1.484-.475v-.143c.473-.113.902-.3 1.285-.56a2.86 2.86 0 0 0 .916-1.016c.228-.422.341-.928.341-1.52 0-.72-.175-1.364-.525-1.932-.346-.568-.869-1.016-1.57-1.342-.696-.332-1.57-.498-2.621-.498Zm-.099 12.344h-2.834v-4.261h2.905c.544 0 1.013.102 1.406.305a2.176 2.176 0 0 1 1.229 1.989c0 .578-.213 1.051-.639 1.42-.422.365-1.111.547-2.067.547Zm-.227-6.157h-2.607v-4.013h2.663c.777 0 1.362.182 1.755.547.397.364.596.828.596 1.392 0 .426-.106.795-.319 1.108a2.073 2.073 0 0 1-.86.717 2.932 2.932 0 0 1-1.228.249Zm17.363-6.186h-9.46V41h9.517v-2.209h-6.882v-3.97h6.335v-2.209h-6.335v-3.949h6.825v-2.209Z" fill="#fff"/></svg>