<svg width="512" height="628" fill="none" xmlns="http://www.w3.org/2000/svg"><g filter="url('#filter0_b_22_24')"><path d="M0 87.08C0 33.87 48.897-6.162 101.519 1.727 150.778 9.112 209.254 16 256 16c46.746 0 105.222-6.888 154.481-14.273C463.103-6.163 512 33.87 512 87.08V544c0 46.392-37.608 84-84 84H84c-46.392 0-84-37.608-84-84V87.08Z" fill="#fff" fill-opacity=".05"/><path d="M1 87.08C1 34.515 49.32-5.088 101.37 2.716 150.641 10.102 209.177 17 256 17c46.823 0 105.359-6.898 154.63-14.284C462.679-5.088 511 34.515 511 87.08V544c0 45.84-37.16 83-83 83H84c-45.84 0-83-37.16-83-83V87.08Z" stroke="url('#paint0_linear_22_24')" stroke-width="2"/></g><defs><linearGradient id="paint0_linear_22_24" x1="27" y1="25.5" x2="485" y2="606.5" gradientUnits="userSpaceOnUse"><stop stop-color="#fff" stop-opacity=".4"/><stop offset=".46" stop-color="#fff" stop-opacity="0"/><stop offset="1" stop-color="#fff" stop-opacity=".4"/></linearGradient><filter id="filter0_b_22_24" x="-17.1" y="-16.368" width="546.2" height="661.468" filterUnits="userSpaceOnUse" color-interpolation-filters="sRGB"><feFlood flood-opacity="0" result="BackgroundImageFix"/><feGaussianBlur in="BackgroundImageFix" stdDeviation="8.55"/><feComposite in2="SourceAlpha" operator="in" result="effect1_backgroundBlur_22_24"/><feBlend in="SourceGraphic" in2="effect1_backgroundBlur_22_24" result="shape"/></filter></defs></svg>