<svg width="564" height="456" fill="none" xmlns="http://www.w3.org/2000/svg"><g filter="url('#filter0_bd_22_151')" shape-rendering="crispEdges"><path d="M26 98.865c0-50.775 44.688-90.057 95.219-85.083 50.51 4.972 112.026 9.79 160.781 9.79 48.755 0 110.271-4.818 160.781-9.79C493.312 8.808 538 48.09 538 98.865V333c0 46.392-37.608 84-84 84H110c-46.392 0-84-37.608-84-84V98.865Z" fill="#fff" fill-opacity=".05"/><path d="M27 98.865C27 48.7 71.159 9.859 121.121 14.777 171.637 19.75 233.194 24.571 282 24.571s110.363-4.82 160.879-9.794C492.841 9.86 537 48.7 537 98.865V333c0 45.84-37.16 83-83 83H110c-45.84 0-83-37.16-83-83V98.865Z" stroke="url('#paint0_linear_22_151')" stroke-width="2"/></g><defs><linearGradient id="paint0_linear_22_151" x1="53" y1="29.679" x2="297.185" y2="511.532" gradientUnits="userSpaceOnUse"><stop stop-color="#fff" stop-opacity=".4"/><stop offset=".46" stop-color="#fff" stop-opacity="0"/><stop offset="1" stop-color="#fff" stop-opacity=".4"/></linearGradient><filter id="filter0_bd_22_151" x=".5" y="-3.744" width="563" height="459.244" filterUnits="userSpaceOnUse" color-interpolation-filters="sRGB"><feFlood flood-opacity="0" result="BackgroundImageFix"/><feGaussianBlur in="BackgroundImageFix" stdDeviation="8.55"/><feComposite in2="SourceAlpha" operator="in" result="effect1_backgroundBlur_22_151"/><feColorMatrix in="SourceAlpha" values="0 0 0 0 0 0 0 0 0 0 0 0 0 0 0 0 0 0 127 0" result="hardAlpha"/><feOffset dy="13"/><feGaussianBlur stdDeviation="12.75"/><feComposite in2="hardAlpha" operator="out"/><feColorMatrix values="0 0 0 0 0 0 0 0 0 0 0 0 0 0 0 0 0 0 0.25 0"/><feBlend in2="effect1_backgroundBlur_22_151" result="effect2_dropShadow_22_151"/><feBlend in="SourceGraphic" in2="effect2_dropShadow_22_151" result="shape"/></filter></defs></svg>